{"title":"My Family [1995] XvID ","uid":9363411,"size":1275192618,"categoryP":"video","categoryS":"movies","magnet":"?xt=urn:btih:cfb4264623d87244ba54528e97b07d2d213253dd&amp;dn=My+Family+%5B1995%5D+XvID+&amp;tr=udp%3A%2F%2Ftracker.openbittorrent.com%3A80&amp;tr=udp%3A%2F%2Fopen.demonii.com%3A1337&amp;tr=udp%3A%2F%2Ftracker.coppersurfer.tk%3A6969&amp;tr=udp%3A%2F%2Fexodus.desync.com%3A6969","seeders":0,"leechers":1,"uploader":"7","files":-1,"time":1387372471,"description":"Traces over three generations an immigrant family's trials, tribulations, tragedies, and triumphs. Maria and Jose, the first generation, come to Los Angeles, meet, marry, face deportation all in the 1930's. They establish their family in East L.A., and their children Chucho, Paco, Memo, Irene, Toni, and Jimmy deal with youth culture and the L.A. police in the 50's. As the second generation become adults in the 60's, the focus shifts to Jimmy, his marriage to Isabel (a Salvadorian refugee), their son, and Jimmy's journey to becoming a responsible parent.\n\nFormat : AVI\nFormat/Info : Audio Video Interleave\nFile size : 1.19 GiB\nDuration : 2h 6mn\nOverall bit rate : 1 340 Kbps\nWriting application : MEncoder SVN-r22963\nWriting library : MPlayer\n\nVideo\nID : 0\nFormat : MPEG-4 Visual\nFormat profile : Simple@L1\nFormat settings, BVOP : No\nFormat settings, QPel : No\nFormat settings, GMC : No warppoints\nFormat settings, Matrix : Default (H.263)\nCodec ID : XVID\nCodec ID/Hint : XviD\nDuration : 2h 6mn\nBit rate : 1 199 Kbps\nWidth : 480 pixels\nHeight : 360 pixels\nDisplay aspect ratio : 4:3\nFrame rate : 29.970 fps\nColor space : YUV\nChroma subsampling : 4:2:0\nBit depth : 8 bits\nScan type : Progressive\nCompression mode : Lossy\nBits/(Pixel*Frame) : 0.232\nStream size : 1.06 GiB (89%)\nWriting library : Lavc51.40.2\n\nAudio\nID : 1\nFormat : MPEG Audio\nFormat version : Version 1\nFormat profile : Layer 3\nCodec ID : 55\nCodec ID/Hint : MP3\nDuration : 2h 6mn\nBit rate mode : Constant\nBit rate : 128 Kbps\nChannel(s) : 2 channels\nSampling rate : 44.1 KHz\nCompression mode : Lossy\nStream size : 116 MiB (10%)\nAlignment : Aligned on interleaves\nInterleave, duration : 26 ms (0.78 video frame)\nInterleave, preload duration : 522 ms\n &lt;a href=&quot;\nhttp://lookpic.com/O/i2/961/W4nO62Mw.png&quot; rel=&quot;nofollow&quot; target=&quot;_NEW&quot;&gt;\nhttp://lookpic.com/O/i2/961/W4nO62Mw.png&lt;/a&gt;","torrent":{"xt":"urn:btih:cfb4264623d87244ba54528e97b07d2d213253dd","amp;dn":"My+Family+%5B1995%5D+XvID+","amp;tr":["udp%3A%2F%2Ftracker.openbittorrent.com%3A80","udp%3A%2F%2Fopen.demonii.com%3A1337","udp%3A%2F%2Ftracker.coppersurfer.tk%3A6969","udp%3A%2F%2Fexodus.desync.com%3A6969"],"infoHash":"cfb4264623d87244ba54528e97b07d2d213253dd","infoHashBuffer":{"type":"Buffer","data":[207,180,38,70,35,216,114,68,186,84,82,142,151,176,125,45,33,50,83,221]},"announce":[],"urlList":[]}}